<?xml version="1.0" standalone="no"?>
<!DOCTYPE svg PUBLIC "-//W3C//DTD SVG 20010904//EN"
 "http://www.w3.org/TR/2001/REC-SVG-20010904/DTD/svg10.dtd">
<svg version="1.0" xmlns="http://www.w3.org/2000/svg"
 width="105.000000pt" height="105.000000pt" viewBox="0 0 105.000000 105.000000"
 preserveAspectRatio="xMidYMid meet">
<metadata>
Created by potrace 1.11, written by Peter Selinger 2001-2013
</metadata>
<g transform="translate(0.000000,105.000000) scale(0.100000,-0.100000)"
fill="#000000" stroke="none">
<path d="M362 865 c2 -3 -70 -78 -162 -168 -92 -89 -167 -164 -167 -167 0 -3
77 -80 171 -173 l172 -167 33 34 33 34 -131 132 c-73 72 -131 136 -129 140 2
5 45 52 97 105 l94 96 136 -135 136 -135 34 34 34 34 -170 170 c-94 94 -174
171 -179 171 -4 0 -5 -2 -2 -5z"/>
<path d="M613 838 c-11 -13 -23 -28 -26 -34 -4 -6 52 -69 123 -140 72 -70 130
-131 130 -134 0 -6 -121 -130 -173 -178 l-25 -24 -131 131 c-72 72 -135 131
-139 131 -5 0 -21 -14 -37 -30 l-29 -31 164 -166 c91 -92 166 -169 168 -172 1
-3 80 72 174 166 l170 170 -165 167 c-91 91 -169 166 -174 166 -5 0 -19 -10
-30 -22z"/>
</g>
</svg>
